<svg width="61" height="56" viewBox="0 0 61 56" fill="none" xmlns="http://www.w3.org/2000/svg">
<path d="M53.5 0C52.9477 0 52.5 0.447715 52.5 1V11C52.5 11.5523 52.0523 12 51.5 12H41.5C40.9477 12 40.5 11.5523 40.5 11V1C40.5 0.447715 40.0523 0 39.5 0H21.5C20.9477 0 20.5 0.447715 20.5 1V11C20.5 11.5523 20.0523 12 19.5 12H9.5C8.94772 12 8.5 11.5523 8.5 11V1C8.5 0.447715 8.05228 0 7.5 0H1.5C0.947715 0 0.5 0.447715 0.5 1V55C0.5 55.5523 0.947715 56 1.5 56H19.5C20.0523 56 20.5 55.5523 20.5 55V53C20.5 52.4477 20.0523 52 19.5 52H5.5C4.94772 52 4.5 51.5523 4.5 51V21C4.5 20.4477 4.94772 20 5.5 20H55.5C56.0523 20 56.5 20.4477 56.5 21V31C56.5 31.5523 56.9477 32 57.5 32H59.5C60.0523 32 60.5 31.5523 60.5 31V1C60.5 0.447715 60.0523 0 59.5 0H53.5Z" fill="#EFB840"/>
</svg>
