<svg width="97" height="96" viewBox="0 0 97 96" fill="none" xmlns="http://www.w3.org/2000/svg">
<path d="M28.5 17C28.5 16.4477 28.9477 16 29.5 16H31.5C32.0523 16 32.5 16.4477 32.5 17V27C32.5 27.5523 32.0523 28 31.5 28H29.5C28.9477 28 28.5 27.5523 28.5 27V17Z" fill="#EFB840"/>
<path d="M60.5 17C60.5 16.4477 60.9477 16 61.5 16H63.5C64.0523 16 64.5 16.4477 64.5 17V27C64.5 27.5523 64.0523 28 63.5 28H61.5C60.9477 28 60.5 27.5523 60.5 27V17Z" fill="#EFB840"/>
<path d="M69.5 20C68.9477 20 68.5 20.4477 68.5 21V31C68.5 31.5523 68.0523 32 67.5 32H57.5C56.9477 32 56.5 31.5523 56.5 31V21C56.5 20.4477 56.0523 20 55.5 20H37.5C36.9477 20 36.5 20.4477 36.5 21V31C36.5 31.5523 36.0523 32 35.5 32H25.5C24.9477 32 24.5 31.5523 24.5 31V21C24.5 20.4477 24.0523 20 23.5 20H17.5C16.9477 20 16.5 20.4477 16.5 21V75C16.5 75.5523 16.9477 76 17.5 76H35.5C36.0523 76 36.5 75.5523 36.5 75V73C36.5 72.4477 36.0523 72 35.5 72H21.5C20.9477 72 20.5 71.5523 20.5 71V41C20.5 40.4477 20.9477 40 21.5 40H71.5C72.0523 40 72.5 40.4477 72.5 41V51C72.5 51.5523 72.9477 52 73.5 52H75.5C76.0523 52 76.5 51.5523 76.5 51V21C76.5 20.4477 76.0523 20 75.5 20H69.5Z" fill="#EFB840"/>
<path d="M69.5 56C68.9477 56 68.5 55.5523 68.5 55V49C68.5 48.4477 68.0523 48 67.5 48H53.5C52.9477 48 52.5 48.4477 52.5 49V55C52.5 55.5523 52.0523 56 51.5 56H41.5C40.9477 56 40.5 56.4477 40.5 57V79C40.5 79.5523 40.9477 80 41.5 80H79.5C80.0523 80 80.5 79.5523 80.5 79V57C80.5 56.4477 80.0523 56 79.5 56H69.5ZM56.5 53C56.5 52.4477 56.9477 52 57.5 52H63.5C64.0523 52 64.5 52.4477 64.5 53V55C64.5 55.5523 64.0523 56 63.5 56H57.5C56.9477 56 56.5 55.5523 56.5 55V53Z" fill="#EFB840"/>
</svg>
