<svg width="20" height="20" viewBox="0 0 20 20" fill="none" xmlns="http://www.w3.org/2000/svg">
<path d="M6 20C5.45 20 4.97933 19.8043 4.588 19.413C4.19667 19.0217 4.00067 18.5507 4 18C4 17.45 4.196 16.9793 4.588 16.588C4.98 16.1967 5.45067 16.0007 6 16C6.55 16 7.021 16.196 7.413 16.588C7.805 16.98 8.00067 17.4507 8 18C8 18.55 7.80433 19.021 7.413 19.413C7.02167 19.805 6.55067 20.0007 6 20ZM16 20C15.45 20 14.9793 19.8043 14.588 19.413C14.1967 19.0217 14.0007 18.5507 14 18C14 17.45 14.196 16.9793 14.588 16.588C14.98 16.1967 15.4507 16.0007 16 16C16.55 16 17.021 16.196 17.413 16.588C17.805 16.98 18.0007 17.4507 18 18C18 18.55 17.8043 19.021 17.413 19.413C17.0217 19.805 16.5507 20.0007 16 20ZM4.2 2H18.95C19.3333 2 19.625 2.171 19.825 2.513C20.025 2.855 20.0333 3.20067 19.85 3.55L16.3 9.95C16.1167 10.2833 15.871 10.5417 15.563 10.725C15.255 10.9083 14.9173 11 14.55 11H7.1L6 13H17C17.2833 13 17.521 13.096 17.713 13.288C17.905 13.48 18.0007 13.7173 18 14C18 14.2833 17.904 14.521 17.712 14.713C17.52 14.905 17.2827 15.0007 17 15H6C5.25 15 4.68333 14.671 4.3 14.013C3.91667 13.355 3.9 12.7007 4.25 12.05L5.6 9.6L2 2H1C0.716667 2 0.479333 1.904 0.288 1.712C0.0966666 1.52 0.000666667 1.28267 0 1C0 0.716667 0.096 0.479333 0.288 0.288C0.48 0.0966668 0.717333 0.000666667 1 0H2.625C2.80833 0 2.98333 0.0500001 3.15 0.15C3.31667 0.25 3.44167 0.391667 3.525 0.575L4.2 2Z" fill="black"/>
</svg>
