<svg width="41" height="40" viewBox="0 0 41 40" fill="none" xmlns="http://www.w3.org/2000/svg">
<path d="M36.8425 16.7358H35.5V16.6666H20.5V23.3333H29.9192C28.545 27.2141 24.8525 30 20.5 30C14.9775 30 10.5 25.5225 10.5 20C10.5 14.4775 14.9775 9.99998 20.5 9.99998C23.0492 9.99998 25.3684 10.9616 27.1342 12.5325L31.8484 7.81831C28.8717 5.04415 24.89 3.33331 20.5 3.33331C11.2959 3.33331 3.83337 10.7958 3.83337 20C3.83337 29.2041 11.2959 36.6666 20.5 36.6666C29.7042 36.6666 37.1667 29.2041 37.1667 20C37.1667 18.8825 37.0517 17.7916 36.8425 16.7358Z" fill="#FFC107"/>
<path d="M5.755 12.2425L11.2308 16.2583C12.7125 12.59 16.3008 9.99998 20.5 9.99998C23.0492 9.99998 25.3683 10.9616 27.1342 12.5325L31.8483 7.81831C28.8717 5.04415 24.89 3.33331 20.5 3.33331C14.0983 3.33331 8.54667 6.94748 5.755 12.2425Z" fill="#FF3D00"/>
<path d="M20.5 36.6667C24.805 36.6667 28.7166 35.0192 31.6741 32.34L26.5158 27.975C24.7863 29.2903 22.6729 30.0017 20.5 30C16.165 30 12.4841 27.2359 11.0975 23.3784L5.66248 27.5659C8.42081 32.9634 14.0225 36.6667 20.5 36.6667Z" fill="#4CAF50"/>
<path d="M36.8425 16.7359H35.5V16.6667H20.5V23.3334H29.9192C29.2618 25.1804 28.0778 26.7943 26.5133 27.9759L26.5158 27.9742L31.6742 32.3392C31.3092 32.6709 37.1667 28.3334 37.1667 20C37.1667 18.8825 37.0517 17.7917 36.8425 16.7359Z" fill="#1976D2"/>
</svg>
