<svg width="53" height="36" viewBox="0 0 53 36" fill="none" xmlns="http://www.w3.org/2000/svg">
<rect x="0.5" width="52" height="36" rx="12" fill="#EFB840"/>
<path d="M31.84 11.46C31.6027 11.46 31.3707 11.5304 31.1733 11.6622C30.976 11.7941 30.8222 11.9815 30.7313 12.2008C30.6405 12.4201 30.6168 12.6613 30.6631 12.8941C30.7094 13.1269 30.8236 13.3407 30.9915 13.5085C31.1593 13.6764 31.3731 13.7906 31.6059 13.8369C31.8387 13.8832 32.0799 13.8595 32.2992 13.7687C32.5185 13.6778 32.7059 13.524 32.8378 13.3267C32.9696 13.1293 33.04 12.8973 33.04 12.66C33.04 12.3417 32.9136 12.0365 32.6885 11.8115C32.4635 11.5864 32.1583 11.46 31.84 11.46ZM36.44 13.88C36.4206 13.0503 36.2652 12.2294 35.98 11.45C35.7257 10.7831 35.33 10.1793 34.82 9.68C34.3248 9.16743 33.7196 8.77418 33.05 8.53C32.2727 8.23616 31.4508 8.07721 30.62 8.06C29.56 8 29.22 8 26.5 8C23.78 8 23.44 8 22.38 8.06C21.5492 8.07721 20.7273 8.23616 19.95 8.53C19.2817 8.77665 18.6769 9.16956 18.18 9.68C17.6674 10.1752 17.2742 10.7804 17.03 11.45C16.7362 12.2273 16.5772 13.0492 16.56 13.88C16.5 14.94 16.5 15.28 16.5 18C16.5 20.72 16.5 21.06 16.56 22.12C16.5772 22.9508 16.7362 23.7727 17.03 24.55C17.2742 25.2196 17.6674 25.8248 18.18 26.32C18.6769 26.8304 19.2817 27.2234 19.95 27.47C20.7273 27.7638 21.5492 27.9228 22.38 27.94C23.44 28 23.78 28 26.5 28C29.22 28 29.56 28 30.62 27.94C31.4508 27.9228 32.2727 27.7638 33.05 27.47C33.7196 27.2258 34.3248 26.8326 34.82 26.32C35.3322 25.8226 35.7283 25.2182 35.98 24.55C36.2652 23.7706 36.4206 22.9497 36.44 22.12C36.44 21.06 36.5 20.72 36.5 18C36.5 15.28 36.5 14.94 36.44 13.88ZM34.64 22C34.6327 22.6348 34.5178 23.2637 34.3 23.86C34.1403 24.2952 33.8839 24.6884 33.55 25.01C33.2256 25.3405 32.8332 25.5964 32.4 25.76C31.8037 25.9778 31.1748 26.0927 30.54 26.1C29.54 26.15 29.17 26.16 26.54 26.16C23.91 26.16 23.54 26.16 22.54 26.1C21.8809 26.1123 21.2246 26.0109 20.6 25.8C20.1858 25.6281 19.8114 25.3728 19.5 25.05C19.1681 24.7287 18.9148 24.3352 18.76 23.9C18.5159 23.2952 18.3804 22.6519 18.36 22C18.36 21 18.3 20.63 18.3 18C18.3 15.37 18.3 15 18.36 14C18.3645 13.3511 18.483 12.7079 18.71 12.1C18.886 11.6779 19.1563 11.3017 19.5 11C19.8038 10.6562 20.1793 10.3831 20.6 10.2C21.2096 9.98004 21.852 9.86508 22.5 9.86C23.5 9.86 23.87 9.8 26.5 9.8C29.13 9.8 29.5 9.8 30.5 9.86C31.1348 9.86728 31.7637 9.98225 32.36 10.2C32.8144 10.3687 33.2223 10.6428 33.55 11C33.8777 11.3072 34.1338 11.6827 34.3 12.1C34.5223 12.7089 34.6373 13.3518 34.64 14C34.69 15 34.7 15.37 34.7 18C34.7 20.63 34.69 21 34.64 22ZM26.5 12.87C25.4858 12.872 24.495 13.1745 23.6527 13.7394C22.8103 14.3043 22.1544 15.1062 21.7676 16.0438C21.3809 16.9813 21.2807 18.0125 21.4798 19.0069C21.6789 20.0014 22.1682 20.9145 22.8861 21.631C23.6039 22.3474 24.518 22.835 25.5129 23.0321C26.5077 23.2293 27.5387 23.1271 28.4755 22.7385C29.4123 22.35 30.2129 21.6924 30.7761 20.849C31.3394 20.0056 31.64 19.0142 31.64 18C31.6413 17.3251 31.5092 16.6566 31.2512 16.033C30.9933 15.4093 30.6146 14.8428 30.1369 14.3661C29.6592 13.8893 29.0919 13.5117 28.4678 13.2549C27.8436 12.9982 27.1749 12.8674 26.5 12.87ZM26.5 21.33C25.8414 21.33 25.1976 21.1347 24.65 20.7688C24.1023 20.4029 23.6755 19.8828 23.4235 19.2743C23.1714 18.6659 23.1055 17.9963 23.234 17.3503C23.3625 16.7044 23.6796 16.111 24.1453 15.6453C24.611 15.1796 25.2044 14.8625 25.8503 14.734C26.4963 14.6055 27.1659 14.6714 27.7743 14.9235C28.3828 15.1755 28.9029 15.6023 29.2688 16.15C29.6347 16.6976 29.83 17.3414 29.83 18C29.83 18.4373 29.7439 18.8703 29.5765 19.2743C29.4092 19.6784 29.1639 20.0454 28.8547 20.3547C28.5454 20.6639 28.1784 20.9092 27.7743 21.0765C27.3703 21.2439 26.9373 21.33 26.5 21.33Z" fill="black"/>
</svg>
