<svg width="74" height="28" viewBox="0 0 74 28" fill="none" xmlns="http://www.w3.org/2000/svg">
<path fill-rule="evenodd" clip-rule="evenodd" d="M8.82587 18.8694C13.3033 15.4311 16.2497 14.5004 23.3177 16.9861C32.5925 22.0983 37.1837 21.9074 44.1293 15.3244C52.4888 7.71365 57.9406 3.32745 64.6141 1.03398C67.9919 0.147753 69.2994 0.0369966 73.4399 0.369288L71.8055 7.23755C68.6787 6.33123 62.1493 8.68443 51.4297 18.2047C51.248 18.37 51.0652 18.5368 50.8808 18.7048C45.3678 23.7328 38.7362 29.7806 29.8554 27.1778C26.7759 26.2144 24.9205 25.4126 23.058 24.6079C21.6016 23.9785 20.141 23.3475 18.0876 22.6358C16.7248 22.3394 14.887 22.4945 13.7291 24.076L8.82587 18.8694ZM0 8.2346L4.57638 13.4411C12.7485 7.56993 19.6741 6.85785 30.6181 11.2255L33.5601 4.91116C19.3732 -0.795415 11.9547 0.0262509 0 8.2346Z" fill="#EFB840"/>
</svg>
