<svg width="96" height="96" viewBox="0 0 96 96" fill="none" xmlns="http://www.w3.org/2000/svg">
<path d="M75 32C75.5523 32 76 32.4477 76 33V63C76 63.5523 75.5523 64 75 64H21C20.4477 64 20 63.5523 20 63V33C20 32.4477 20.4477 32 21 32H75ZM80 29C80 28.4477 79.5523 28 79 28H17C16.4477 28 16 28.4477 16 29V67C16 67.5523 16.4477 68 17 68H79C79.5523 68 80 67.5523 80 67V29Z" fill="#EFB840"/>
<path d="M48 36C54.8 36 60 41.2 60 48C60 54.8 54.8 60 48 60H68V56H72V40H68V36H48Z" fill="#EFB840"/>
<path d="M36 48C36 41.2 41.2 36 48 36H28V40H24V56H28V60H48C41.2 60 36 54.8 36 48Z" fill="#EFB840"/>
</svg>
