<svg width="306" height="306" viewBox="0 0 306 306" fill="none" xmlns="http://www.w3.org/2000/svg">
<circle cx="151.634" cy="162.562" r="95.8982" fill="#E0E0E0"/>
<circle cx="61.7461" cy="97.8105" r="6.01071" fill="#E0E0E0"/>
<circle cx="219.937" cy="58.7408" r="11.2018" fill="#AFAFAF"/>
<circle cx="63.6585" cy="224.309" r="10.6554" fill="#E0E0E0"/>
<circle cx="254.362" cy="213.927" r="10.6554" fill="#E0E0E0"/>
<circle cx="233.598" cy="225.948" r="5.19107" fill="#AFAFAF"/>
<path d="M259.366 181.049L261.04 188.954L268.832 190.652L261.04 192.349L259.366 200.255L257.693 192.349L249.901 190.652L257.693 188.954L259.366 181.049Z" fill="#F4CF7F"/>
<path d="M249.359 100.337C249.481 99.7594 250.306 99.7594 250.428 100.337L251.494 105.371C251.538 105.582 251.702 105.746 251.912 105.792L256.909 106.881C257.482 107.006 257.482 107.823 256.909 107.948L251.912 109.037C251.702 109.083 251.538 109.247 251.494 109.458L250.428 114.492C250.306 115.07 249.481 115.07 249.359 114.492L248.294 109.458C248.249 109.247 248.085 109.083 247.875 109.037L242.879 107.948C242.305 107.823 242.305 107.006 242.879 106.881L247.875 105.792C248.085 105.746 248.249 105.582 248.294 105.371L249.359 100.337Z" fill="#F8DEA7"/>
<path d="M50.9392 166.453C51.0615 165.876 51.8861 165.876 52.0084 166.453L53.835 175.083C53.8795 175.293 54.0432 175.458 54.2533 175.504L62.7937 177.364C63.3672 177.489 63.3672 178.307 62.7937 178.432L54.2533 180.292C54.0432 180.338 53.8795 180.503 53.835 180.713L52.0084 189.343C51.8861 189.92 51.0615 189.92 50.9392 189.343L49.1126 180.713C49.0681 180.503 48.9044 180.338 48.6943 180.292L40.1539 178.432C39.5804 178.307 39.5804 177.489 40.1539 177.364L48.6943 175.504C48.9044 175.458 49.0681 175.293 49.1126 175.083L50.9392 166.453Z" fill="#F8DEA7"/>
<path d="M84.9827 74.6073C84.6659 74.5399 84.6659 74.0878 84.9827 74.0204L89.7725 73.0019C89.8879 72.9773 89.9783 72.8873 90.0033 72.772L91.0346 68.0159C91.103 67.7007 91.5526 67.7007 91.621 68.0159L92.6523 72.772C92.6773 72.8873 92.7676 72.9773 92.8831 73.0019L97.6729 74.0204C97.9897 74.0878 97.9897 74.5399 97.6729 74.6073L92.8831 75.6259C92.7676 75.6504 92.6773 75.7404 92.6523 75.8557L91.621 80.6118C91.5526 80.927 91.103 80.927 91.0346 80.6118L90.0033 75.8557C89.9783 75.7404 89.8879 75.6504 89.7725 75.6259L84.9827 74.6073Z" fill="#F4CF7F"/>
<circle cx="171.578" cy="127.319" r="60.7464" fill="#F8DEA7" stroke="#F2C666" stroke-width="2"/>
<circle cx="171.578" cy="127.319" r="50.9107" fill="#FAE9C4" stroke="#F2C666" stroke-width="2"/>
<path d="M92.4795 239.679L125.261 194.149L126.718 193.057L129.996 192.328H134.731L137.281 194.149L139.831 195.242L142.016 197.792L143.837 201.798L115.427 255.342L112.148 257.163H108.142L102.678 255.342L98.3073 253.52L94.3007 248.057L92.4795 245.871V239.679Z" fill="#F2C666" stroke="#F2C666" stroke-width="2"/>
<path d="M150.029 184.314L141.719 197.791" stroke="#F2C666" stroke-width="2"/>
<path d="M140.262 179.942L132.249 191.962" stroke="#F2C666" stroke-width="2"/>
<path d="M127.446 192.328L92.115 240.772" stroke="#F2C666" stroke-width="2"/>
<path d="M143.473 201.07L115.063 256.07" stroke="#F2C666" stroke-width="2"/>
<path d="M126.718 193.056L127.317 192.722C128.629 191.991 130.136 191.69 131.628 191.859V191.859C132.237 191.928 132.835 192.075 133.407 192.295L134.434 192.691L134.78 192.807C136.708 193.449 138.46 194.532 139.897 195.97V195.97L141.027 197.099C141.486 197.558 141.887 198.072 142.222 198.629V198.629C142.613 199.281 142.908 199.985 143.099 200.721L143.473 202.162" stroke="#F2C666" stroke-width="2"/>
<path d="M115.791 255.341L114.239 256.039C112.737 256.715 111.116 257.089 109.469 257.141V257.141C108.19 257.181 106.912 257.026 105.679 256.681L104.635 256.389L104.284 256.27C101.188 255.219 98.3675 253.484 96.0336 251.194V251.194L94.6843 249.87C93.6293 248.835 92.8386 247.561 92.379 246.156V246.156C91.8071 244.409 91.7708 242.531 92.2745 240.762L92.4795 240.043" stroke="#F2C666" stroke-width="2"/>
</svg>
