<svg width="97" height="96" viewBox="0 0 97 96" fill="none" xmlns="http://www.w3.org/2000/svg">
<path d="M79.3 73.2L62.5 56.4C61.7 55.6 60.5 55.2 59.3 55.2C62.5 51.2 64.5 45.6 64.5 40C64.5 26.8 53.7 16 40.5 16C27.3 16 16.5 26.8 16.5 40C16.5 53.2 27.3 64 40.5 64C46.1 64 51.7 62 55.7 58.4C55.7 59.6 55.7 60.8 56.9 61.6L73.7 78.4C74.5 79.2 75.7 79.6 76.5 79.6C77.3 79.6 78.5 79.2 79.3 78.4C80.9 77.2 80.9 74.8 79.3 73.2ZM40.5 58C30.5 58 22.5 50 22.5 40C22.5 30 30.5 22 40.5 22C50.5 22 58.5 30 58.5 40C58.5 50 50.5 58 40.5 58Z" fill="#EFB840"/>
</svg>
